<svg width="263" height="249" viewBox="0 0 263 249" fill="none" xmlns="http://www.w3.org/2000/svg">
<path d="M255.478 83.5142C253.162 80.4148 249.613 78.6361 245.744 78.6361H206.707C205.153 78.6361 203.897 79.8949 203.897 81.4461C203.897 82.9972 205.153 84.2561 206.707 84.2561H245.741C247.821 84.2561 249.729 85.2115 250.971 86.8778C252.213 88.5441 252.589 90.6404 251.999 92.6327L235.676 147.849C234.22 152.764 229.629 156.198 224.5 156.198H73.2746L54.5937 84.2561H94.1782C95.7293 84.2561 96.9882 82.9972 96.9882 81.4461C96.9882 79.8949 95.7293 78.6361 94.1782 78.6361H53.1325L50.6428 69.0455C48.6646 61.4248 41.7801 56.0999 33.9065 56.0999H7.81C6.25888 56.0999 5 57.3587 5 58.9099C5 60.461 6.25888 61.7199 7.81 61.7199H33.9065C39.223 61.7199 43.8679 65.3138 45.2055 70.459L76.5791 191.275C76.8995 192.514 78.0178 193.38 79.2992 193.38H225.984C227.538 193.38 228.794 192.124 228.794 190.57C228.794 189.016 227.538 187.76 225.984 187.76H81.4713L74.7358 161.818H224.509C232.107 161.818 238.918 156.729 241.071 149.442L257.394 94.2287C258.49 90.5167 257.79 86.6136 255.478 83.5142Z" fill="#FF735C" stroke="#FF735C" stroke-width="10"/>
<path d="M104.671 243.417C94.0995 243.417 85.5009 234.816 85.5009 224.247C85.5009 213.679 94.1023 205.078 104.671 205.078C115.242 205.078 123.843 213.679 123.843 224.247C123.843 234.816 115.242 243.417 104.671 243.417ZM104.671 210.698C97.1989 210.698 91.1209 216.776 91.1209 224.247C91.1209 231.719 97.1989 237.797 104.671 237.797C112.142 237.797 118.223 231.719 118.223 224.247C118.223 216.776 112.142 210.698 104.671 210.698Z" fill="#FF735C" stroke="#FF735C" stroke-width="10"/>
<path d="M196.839 243.417C186.267 243.417 177.669 234.816 177.669 224.247C177.669 213.679 186.27 205.078 196.839 205.078C207.413 205.078 216.011 213.679 216.011 224.247C216.011 234.816 207.41 243.417 196.839 243.417ZM196.839 210.698C189.367 210.698 183.289 216.776 183.289 224.247C183.289 231.719 189.367 237.797 196.839 237.797C204.31 237.797 210.391 231.719 210.391 224.247C210.391 216.776 204.31 210.698 196.839 210.698Z" fill="#FF735C" stroke="#FF735C" stroke-width="10"/>
<path d="M151.117 116.818C150.398 116.818 149.678 116.543 149.131 115.995L98.5899 65.4543C98.0644 64.9289 97.7665 64.2123 97.7665 63.4677C97.7665 62.723 98.0616 62.0065 98.5899 61.481L117.035 43.0362C118.133 41.9375 119.909 41.9375 121.008 43.0362L135.263 57.2913V7.81C135.263 6.25888 136.519 5 138.073 5H164.158C165.712 5 166.968 6.25888 166.968 7.81V57.2913L181.224 43.0362C182.322 41.9375 184.098 41.9375 185.197 43.0362L203.642 61.481C204.17 62.0065 204.465 62.723 204.465 63.4677C204.465 64.2123 204.17 64.9289 203.642 65.4543L153.104 115.995C152.556 116.543 151.837 116.818 151.117 116.818ZM104.55 63.4677L151.117 110.035L197.685 63.4677L183.213 48.9962L166.148 66.0613C165.341 66.865 164.136 67.1066 163.085 66.6711C162.034 66.2355 161.351 65.2099 161.351 64.0746V10.62H140.886V64.0746C140.886 65.2099 140.203 66.2355 139.152 66.6711C138.104 67.1066 136.896 66.8678 136.089 66.0613L119.024 48.9962L104.55 63.4677Z" fill="#FF735C" stroke="#FF735C" stroke-width="10"/>
</svg>
