<svg width="600" height="600" viewBox="0 0 600 600" fill="none" xmlns="http://www.w3.org/2000/svg">
<path d="M300 580C454.64 580 580 454.64 580 300C580 145.36 454.64 20 300 20C145.36 20 20 145.36 20 300C20 454.64 145.36 580 300 580Z" fill="#333333"/>
<path d="M459.603 446.678L436.585 187.27C436.171 182.136 431.865 178.245 426.649 178.245H378.129C378.046 135.107 342.939 100 299.801 100C256.663 100 221.557 135.107 221.474 178.245H172.954C167.82 178.245 163.515 182.136 163.018 187.27L140 446.678C140 447.009 140 447.257 140 447.588C140 476.485 166.578 500 199.201 500H400.402C433.024 500 459.603 476.485 459.603 447.588C459.603 447.257 459.603 447.009 459.603 446.678ZM299.801 119.872C332.01 119.872 358.174 146.036 358.257 178.245H241.345C241.428 146.036 267.593 119.872 299.801 119.872ZM400.402 480.046H199.201C177.673 480.046 160.12 465.721 159.872 447.92L182.062 198.116H221.474V232.975C221.474 238.439 225.945 242.91 231.41 242.91C236.874 242.91 241.345 238.439 241.345 232.975V198.116H358.257V232.975C358.257 238.439 362.728 242.91 368.193 242.91C373.658 242.91 378.129 238.439 378.129 232.975V198.116H417.541L439.731 448.002C439.483 465.721 421.929 480.046 400.402 480.046Z" fill="#FF735C"/>
</svg>
