<svg width="246" height="242" viewBox="0 0 246 242" fill="none" xmlns="http://www.w3.org/2000/svg">
<path d="M119.272 230.129L123 234.301L126.728 230.129L223.022 122.374L223.022 122.374C234.661 109.347 241 92.1127 241 73.9082C241 55.7051 234.667 38.4674 223.024 25.4419C211.366 12.3997 195.72 5.0791 178.963 5.0791C162.207 5.0791 146.554 12.396 134.898 25.4428L123 38.757L111.102 25.4423C99.446 12.3994 83.7965 5.0791 67.0399 5.0791C50.2838 5.0791 34.6339 12.3962 22.9778 25.4428C11.3392 38.4697 5 55.7009 5 73.9082C5 92.1153 11.339 109.35 22.9782 122.374L119.272 230.129ZM123 211.344L33.9854 111.735C25.0284 101.712 20.0222 88.3 20.0222 73.9082C20.0222 59.5168 25.0307 46.1024 33.9879 36.0791C42.9284 26.0744 54.6651 20.6991 67.0399 20.6991C79.4168 20.6991 91.1511 26.0741 100.094 36.0819L119.272 57.5418L123 61.7141L126.728 57.5416L145.905 36.0795C145.905 36.0793 145.906 36.0791 145.906 36.0788C154.849 26.0741 166.586 20.6991 178.96 20.6991C191.332 20.6991 203.072 26.0744 212.015 36.0795C220.972 46.1057 225.978 59.5144 225.978 73.9082C225.978 88.3027 220.972 101.711 212.015 111.735L123 211.344Z" fill="#FF735C" stroke="#FF735C" stroke-width="10"/>
</svg>
